<svg xmlns="http://www.w3.org/2000/svg" xmlns:xlink="http://www.w3.org/1999/xlink" width="468pt" height="1196pt" viewBox="0.00 0.00 467.79 1196.00">
<g id="graph0" class="graph" transform="scale(1 1) rotate(0) translate(4 1192)">
<title>program</title>
<polygon fill="white" stroke="none" points="-4,4 -4,-1192 463.79,-1192 463.79,4 -4,4"/>
<!-- 0 -->
<g id="node1" class="node">
<title>0</title>
<ellipse fill="#136ed4" stroke="black" cx="131.79" cy="-1170" rx="29.11" ry="18"/>
<text text-anchor="middle" x="131.79" y="-1165.33" font-family="Times,serif" font-size="14.00">sub</text>
</g>
<!-- 1 -->
<g id="node2" class="node">
<title>1</title>
<ellipse fill="#136ed4" stroke="black" cx="94.79" cy="-1098" rx="27" ry="18"/>
<text text-anchor="middle" x="94.79" y="-1093.33" font-family="Times,serif" font-size="14.00">sin</text>
</g>
<!-- 0&#45;&gt;1 -->
<g id="edge36" class="edge">
<title>0-&gt;1</title>
<path fill="none" stroke="black" d="M123.02,-1152.41C118.69,-1144.22 113.36,-1134.14 108.51,-1124.95"/>
<polygon fill="black" stroke="black" points="111.26,-1123.68 103.5,-1116.47 105.07,-1126.95 111.26,-1123.68"/>
</g>
<!-- 5 -->
<g id="node6" class="node">
<title>5</title>
<ellipse fill="#136ed4" stroke="black" cx="168.79" cy="-1098" rx="29.11" ry="18"/>
<text text-anchor="middle" x="168.79" y="-1093.33" font-family="Times,serif" font-size="14.00">sub</text>
</g>
<!-- 0&#45;&gt;5 -->
<g id="edge35" class="edge">
<title>0-&gt;5</title>
<path fill="none" stroke="black" d="M140.56,-1152.41C144.89,-1144.22 150.22,-1134.14 155.07,-1124.95"/>
<polygon fill="black" stroke="black" points="158.51,-1126.95 160.08,-1116.47 152.32,-1123.68 158.51,-1126.95"/>
</g>
<!-- 2 -->
<g id="node3" class="node">
<title>2</title>
<ellipse fill="#136ed4" stroke="black" cx="93.79" cy="-1026" rx="30.16" ry="18"/>
<text text-anchor="middle" x="93.79" y="-1021.33" font-family="Times,serif" font-size="14.00">mul</text>
</g>
<!-- 1&#45;&gt;2 -->
<g id="edge3" class="edge">
<title>1-&gt;2</title>
<path fill="none" stroke="black" d="M94.54,-1079.7C94.44,-1072.24 94.31,-1063.32 94.19,-1054.97"/>
<polygon fill="black" stroke="black" points="97.68,-1055.05 94.03,-1045.1 90.68,-1055.15 97.68,-1055.05"/>
</g>
<!-- 3 -->
<g id="node4" class="node">
<title>3</title>
<ellipse fill="#60a6f6" stroke="black" cx="42.79" cy="-954" rx="42.79" ry="18"/>
<text text-anchor="middle" x="42.79" y="-949.33" font-family="Times,serif" font-size="14.00">-0.447</text>
</g>
<!-- 2&#45;&gt;3 -->
<g id="edge2" class="edge">
<title>2-&gt;3</title>
<path fill="none" stroke="black" d="M82.22,-1009.12C75.98,-1000.56 68.14,-989.8 61.1,-980.13"/>
<polygon fill="black" stroke="black" points="63.39,-978.33 54.67,-972.31 57.73,-982.45 63.39,-978.33"/>
</g>
<!-- 4 -->
<g id="node5" class="node">
<title>4</title>
<ellipse fill="#60a6f6" stroke="black" cx="130.79" cy="-954" rx="27" ry="18"/>
<text text-anchor="middle" x="130.79" y="-949.33" font-family="Times,serif" font-size="14.00">X0</text>
</g>
<!-- 2&#45;&gt;4 -->
<g id="edge1" class="edge">
<title>2-&gt;4</title>
<path fill="none" stroke="black" d="M102.56,-1008.41C106.89,-1000.22 112.22,-990.14 117.07,-980.95"/>
<polygon fill="black" stroke="black" points="120.51,-982.95 122.08,-972.47 114.32,-979.68 120.51,-982.95"/>
</g>
<!-- 6 -->
<g id="node7" class="node">
<title>6</title>
<ellipse fill="#60a6f6" stroke="black" cx="168.79" cy="-1026" rx="27" ry="18"/>
<text text-anchor="middle" x="168.79" y="-1021.33" font-family="Times,serif" font-size="14.00">X0</text>
</g>
<!-- 5&#45;&gt;6 -->
<g id="edge34" class="edge">
<title>5-&gt;6</title>
<path fill="none" stroke="black" d="M168.79,-1079.7C168.79,-1072.24 168.79,-1063.32 168.79,-1054.97"/>
<polygon fill="black" stroke="black" points="172.29,-1055.1 168.79,-1045.1 165.29,-1055.1 172.29,-1055.1"/>
</g>
<!-- 7 -->
<g id="node8" class="node">
<title>7</title>
<ellipse fill="#136ed4" stroke="black" cx="240.79" cy="-1026" rx="27" ry="18"/>
<text text-anchor="middle" x="240.79" y="-1021.33" font-family="Times,serif" font-size="14.00">sin</text>
</g>
<!-- 5&#45;&gt;7 -->
<g id="edge33" class="edge">
<title>5-&gt;7</title>
<path fill="none" stroke="black" d="M184.06,-1082.15C194.02,-1072.47 207.2,-1059.65 218.35,-1048.81"/>
<polygon fill="black" stroke="black" points="220.31,-1051.83 225.04,-1042.35 215.43,-1046.81 220.31,-1051.83"/>
</g>
<!-- 8 -->
<g id="node9" class="node">
<title>8</title>
<ellipse fill="#136ed4" stroke="black" cx="240.79" cy="-954" rx="29.11" ry="18"/>
<text text-anchor="middle" x="240.79" y="-949.33" font-family="Times,serif" font-size="14.00">sub</text>
</g>
<!-- 7&#45;&gt;8 -->
<g id="edge32" class="edge">
<title>7-&gt;8</title>
<path fill="none" stroke="black" d="M240.79,-1007.7C240.79,-1000.24 240.79,-991.32 240.79,-982.97"/>
<polygon fill="black" stroke="black" points="244.29,-983.1 240.79,-973.1 237.29,-983.1 244.29,-983.1"/>
</g>
<!-- 9 -->
<g id="node10" class="node">
<title>9</title>
<ellipse fill="#60a6f6" stroke="black" cx="196.79" cy="-882" rx="42.79" ry="18"/>
<text text-anchor="middle" x="196.79" y="-877.33" font-family="Times,serif" font-size="14.00">-1.107</text>
</g>
<!-- 8&#45;&gt;9 -->
<g id="edge31" class="edge">
<title>8-&gt;9</title>
<path fill="none" stroke="black" d="M230.59,-936.76C225.38,-928.49 218.94,-918.23 213.07,-908.9"/>
<polygon fill="black" stroke="black" points="215.53,-907.24 207.25,-900.63 209.6,-910.96 215.53,-907.24"/>
</g>
<!-- 10 -->
<g id="node11" class="node">
<title>10</title>
<ellipse fill="#136ed4" stroke="black" cx="284.79" cy="-882" rx="27" ry="18"/>
<text text-anchor="middle" x="284.79" y="-877.33" font-family="Times,serif" font-size="14.00">log</text>
</g>
<!-- 8&#45;&gt;10 -->
<g id="edge30" class="edge">
<title>8-&gt;10</title>
<path fill="none" stroke="black" d="M251,-936.76C256.33,-928.28 262.97,-917.71 268.95,-908.2"/>
<polygon fill="black" stroke="black" points="272.28,-910.48 274.64,-900.15 266.36,-906.75 272.28,-910.48"/>
</g>
<!-- 11 -->
<g id="node12" class="node">
<title>11</title>
<ellipse fill="#136ed4" stroke="black" cx="284.79" cy="-810" rx="29.64" ry="18"/>
<text text-anchor="middle" x="284.79" y="-805.33" font-family="Times,serif" font-size="14.00">add</text>
</g>
<!-- 10&#45;&gt;11 -->
<g id="edge29" class="edge">
<title>10-&gt;11</title>
<path fill="none" stroke="black" d="M284.79,-863.7C284.79,-856.24 284.79,-847.32 284.79,-838.97"/>
<polygon fill="black" stroke="black" points="288.29,-839.1 284.79,-829.1 281.29,-839.1 288.29,-839.1"/>
</g>
<!-- 12 -->
<g id="node13" class="node">
<title>12</title>
<ellipse fill="#60a6f6" stroke="black" cx="247.79" cy="-738" rx="27" ry="18"/>
<text text-anchor="middle" x="247.79" y="-733.33" font-family="Times,serif" font-size="14.00">X2</text>
</g>
<!-- 11&#45;&gt;12 -->
<g id="edge28" class="edge">
<title>11-&gt;12</title>
<path fill="none" stroke="black" d="M276.02,-792.41C271.69,-784.22 266.36,-774.14 261.51,-764.95"/>
<polygon fill="black" stroke="black" points="264.26,-763.68 256.5,-756.47 258.07,-766.95 264.26,-763.68"/>
</g>
<!-- 13 -->
<g id="node14" class="node">
<title>13</title>
<ellipse fill="#136ed4" stroke="black" cx="321.79" cy="-738" rx="29.11" ry="18"/>
<text text-anchor="middle" x="321.79" y="-733.33" font-family="Times,serif" font-size="14.00">sub</text>
</g>
<!-- 11&#45;&gt;13 -->
<g id="edge27" class="edge">
<title>11-&gt;13</title>
<path fill="none" stroke="black" d="M293.56,-792.41C297.89,-784.22 303.22,-774.14 308.07,-764.95"/>
<polygon fill="black" stroke="black" points="311.51,-766.95 313.08,-756.47 305.32,-763.68 311.51,-766.95"/>
</g>
<!-- 14 -->
<g id="node15" class="node">
<title>14</title>
<ellipse fill="#136ed4" stroke="black" cx="284.79" cy="-666" rx="29.11" ry="18"/>
<text text-anchor="middle" x="284.79" y="-661.33" font-family="Times,serif" font-size="14.00">sub</text>
</g>
<!-- 13&#45;&gt;14 -->
<g id="edge26" class="edge">
<title>13-&gt;14</title>
<path fill="none" stroke="black" d="M313.02,-720.41C308.69,-712.22 303.36,-702.14 298.51,-692.95"/>
<polygon fill="black" stroke="black" points="301.26,-691.68 293.5,-684.47 295.07,-694.95 301.26,-691.68"/>
</g>
<!-- 32 -->
<g id="node33" class="node">
<title>32</title>
<ellipse fill="#136ed4" stroke="black" cx="358.79" cy="-666" rx="27" ry="18"/>
<text text-anchor="middle" x="358.79" y="-661.33" font-family="Times,serif" font-size="14.00">log</text>
</g>
<!-- 13&#45;&gt;32 -->
<g id="edge25" class="edge">
<title>13-&gt;32</title>
<path fill="none" stroke="black" d="M330.56,-720.41C334.89,-712.22 340.22,-702.14 345.07,-692.95"/>
<polygon fill="black" stroke="black" points="348.51,-694.95 350.08,-684.47 342.32,-691.68 348.51,-694.95"/>
</g>
<!-- 15 -->
<g id="node16" class="node">
<title>15</title>
<ellipse fill="#136ed4" stroke="black" cx="211.79" cy="-594" rx="29.11" ry="18"/>
<text text-anchor="middle" x="211.79" y="-589.33" font-family="Times,serif" font-size="14.00">sub</text>
</g>
<!-- 14&#45;&gt;15 -->
<g id="edge20" class="edge">
<title>14-&gt;15</title>
<path fill="none" stroke="black" d="M269.66,-650.5C259.65,-640.89 246.32,-628.11 234.98,-617.24"/>
<polygon fill="black" stroke="black" points="237.79,-615.12 228.15,-610.73 232.94,-620.17 237.79,-615.12"/>
</g>
<!-- 31 -->
<g id="node32" class="node">
<title>31</title>
<ellipse fill="#60a6f6" stroke="black" cx="285.79" cy="-594" rx="27" ry="18"/>
<text text-anchor="middle" x="285.79" y="-589.33" font-family="Times,serif" font-size="14.00">X0</text>
</g>
<!-- 14&#45;&gt;31 -->
<g id="edge19" class="edge">
<title>14-&gt;31</title>
<path fill="none" stroke="black" d="M285.04,-647.7C285.14,-640.24 285.27,-631.32 285.39,-622.97"/>
<polygon fill="black" stroke="black" points="288.9,-623.15 285.55,-613.1 281.9,-623.05 288.9,-623.15"/>
</g>
<!-- 16 -->
<g id="node17" class="node">
<title>16</title>
<ellipse fill="#60a6f6" stroke="black" cx="137.79" cy="-522" rx="42.79" ry="18"/>
<text text-anchor="middle" x="137.79" y="-517.33" font-family="Times,serif" font-size="14.00">-1.107</text>
</g>
<!-- 15&#45;&gt;16 -->
<g id="edge18" class="edge">
<title>15-&gt;16</title>
<path fill="none" stroke="black" d="M196.46,-578.5C186.65,-569.22 173.7,-556.97 162.46,-546.34"/>
<polygon fill="black" stroke="black" points="165.32,-544.28 155.65,-539.95 160.51,-549.36 165.32,-544.28"/>
</g>
<!-- 17 -->
<g id="node18" class="node">
<title>17</title>
<ellipse fill="#136ed4" stroke="black" cx="225.79" cy="-522" rx="27" ry="18"/>
<text text-anchor="middle" x="225.79" y="-517.33" font-family="Times,serif" font-size="14.00">log</text>
</g>
<!-- 15&#45;&gt;17 -->
<g id="edge17" class="edge">
<title>15-&gt;17</title>
<path fill="none" stroke="black" d="M215.25,-575.7C216.76,-568.15 218.57,-559.12 220.25,-550.68"/>
<polygon fill="black" stroke="black" points="223.84,-551.6 222.37,-541.1 216.98,-550.22 223.84,-551.6"/>
</g>
<!-- 18 -->
<g id="node19" class="node">
<title>18</title>
<ellipse fill="#136ed4" stroke="black" cx="225.79" cy="-450" rx="29.64" ry="18"/>
<text text-anchor="middle" x="225.79" y="-445.32" font-family="Times,serif" font-size="14.00">add</text>
</g>
<!-- 17&#45;&gt;18 -->
<g id="edge16" class="edge">
<title>17-&gt;18</title>
<path fill="none" stroke="black" d="M225.79,-503.7C225.79,-496.24 225.79,-487.32 225.79,-478.97"/>
<polygon fill="black" stroke="black" points="229.29,-479.1 225.79,-469.1 222.29,-479.1 229.29,-479.1"/>
</g>
<!-- 19 -->
<g id="node20" class="node">
<title>19</title>
<ellipse fill="#60a6f6" stroke="black" cx="188.79" cy="-378" rx="27" ry="18"/>
<text text-anchor="middle" x="188.79" y="-373.32" font-family="Times,serif" font-size="14.00">X2</text>
</g>
<!-- 18&#45;&gt;19 -->
<g id="edge15" class="edge">
<title>18-&gt;19</title>
<path fill="none" stroke="black" d="M217.02,-432.41C212.69,-424.22 207.36,-414.14 202.51,-404.95"/>
<polygon fill="black" stroke="black" points="205.26,-403.68 197.5,-396.47 199.07,-406.95 205.26,-403.68"/>
</g>
<!-- 20 -->
<g id="node21" class="node">
<title>20</title>
<ellipse fill="#136ed4" stroke="black" cx="262.79" cy="-378" rx="29.11" ry="18"/>
<text text-anchor="middle" x="262.79" y="-373.32" font-family="Times,serif" font-size="14.00">sub</text>
</g>
<!-- 18&#45;&gt;20 -->
<g id="edge14" class="edge">
<title>18-&gt;20</title>
<path fill="none" stroke="black" d="M234.56,-432.41C238.89,-424.22 244.22,-414.14 249.07,-404.95"/>
<polygon fill="black" stroke="black" points="252.51,-406.95 254.08,-396.47 246.32,-403.68 252.51,-406.95"/>
</g>
<!-- 21 -->
<g id="node22" class="node">
<title>21</title>
<ellipse fill="#136ed4" stroke="black" cx="225.79" cy="-306" rx="27" ry="18"/>
<text text-anchor="middle" x="225.79" y="-301.32" font-family="Times,serif" font-size="14.00">sin</text>
</g>
<!-- 20&#45;&gt;21 -->
<g id="edge13" class="edge">
<title>20-&gt;21</title>
<path fill="none" stroke="black" d="M254.02,-360.41C249.69,-352.22 244.36,-342.14 239.51,-332.95"/>
<polygon fill="black" stroke="black" points="242.26,-331.68 234.5,-324.47 236.07,-334.95 242.26,-331.68"/>
</g>
<!-- 28 -->
<g id="node29" class="node">
<title>28</title>
<ellipse fill="#136ed4" stroke="black" cx="299.79" cy="-306" rx="29.11" ry="18"/>
<text text-anchor="middle" x="299.79" y="-301.32" font-family="Times,serif" font-size="14.00">sub</text>
</g>
<!-- 20&#45;&gt;28 -->
<g id="edge12" class="edge">
<title>20-&gt;28</title>
<path fill="none" stroke="black" d="M271.56,-360.41C275.89,-352.22 281.22,-342.14 286.07,-332.95"/>
<polygon fill="black" stroke="black" points="289.51,-334.95 291.08,-324.47 283.32,-331.68 289.51,-334.95"/>
</g>
<!-- 22 -->
<g id="node23" class="node">
<title>22</title>
<ellipse fill="#136ed4" stroke="black" cx="225.79" cy="-234" rx="29.11" ry="18"/>
<text text-anchor="middle" x="225.79" y="-229.32" font-family="Times,serif" font-size="14.00">sub</text>
</g>
<!-- 21&#45;&gt;22 -->
<g id="edge9" class="edge">
<title>21-&gt;22</title>
<path fill="none" stroke="black" d="M225.79,-287.7C225.79,-280.24 225.79,-271.32 225.79,-262.97"/>
<polygon fill="black" stroke="black" points="229.29,-263.1 225.79,-253.1 222.29,-263.1 229.29,-263.1"/>
</g>
<!-- 23 -->
<g id="node24" class="node">
<title>23</title>
<ellipse fill="#60a6f6" stroke="black" cx="181.79" cy="-162" rx="42.79" ry="18"/>
<text text-anchor="middle" x="181.79" y="-157.32" font-family="Times,serif" font-size="14.00">-1.107</text>
</g>
<!-- 22&#45;&gt;23 -->
<g id="edge8" class="edge">
<title>22-&gt;23</title>
<path fill="none" stroke="black" d="M215.59,-216.76C210.38,-208.49 203.94,-198.23 198.07,-188.9"/>
<polygon fill="black" stroke="black" points="200.53,-187.24 192.25,-180.63 194.6,-190.96 200.53,-187.24"/>
</g>
<!-- 24 -->
<g id="node25" class="node">
<title>24</title>
<ellipse fill="#136ed4" stroke="black" cx="269.79" cy="-162" rx="27" ry="18"/>
<text text-anchor="middle" x="269.79" y="-157.32" font-family="Times,serif" font-size="14.00">log</text>
</g>
<!-- 22&#45;&gt;24 -->
<g id="edge7" class="edge">
<title>22-&gt;24</title>
<path fill="none" stroke="black" d="M236,-216.76C241.33,-208.28 247.97,-197.71 253.95,-188.2"/>
<polygon fill="black" stroke="black" points="257.28,-190.48 259.64,-180.15 251.36,-186.75 257.28,-190.48"/>
</g>
<!-- 25 -->
<g id="node26" class="node">
<title>25</title>
<ellipse fill="#136ed4" stroke="black" cx="269.79" cy="-90" rx="30.16" ry="18"/>
<text text-anchor="middle" x="269.79" y="-85.33" font-family="Times,serif" font-size="14.00">mul</text>
</g>
<!-- 24&#45;&gt;25 -->
<g id="edge6" class="edge">
<title>24-&gt;25</title>
<path fill="none" stroke="black" d="M269.79,-143.7C269.79,-136.24 269.79,-127.32 269.79,-118.97"/>
<polygon fill="black" stroke="black" points="273.29,-119.1 269.79,-109.1 266.29,-119.1 273.29,-119.1"/>
</g>
<!-- 26 -->
<g id="node27" class="node">
<title>26</title>
<ellipse fill="#60a6f6" stroke="black" cx="225.79" cy="-18" rx="42.79" ry="18"/>
<text text-anchor="middle" x="225.79" y="-13.32" font-family="Times,serif" font-size="14.00">-0.447</text>
</g>
<!-- 25&#45;&gt;26 -->
<g id="edge5" class="edge">
<title>25-&gt;26</title>
<path fill="none" stroke="black" d="M259.59,-72.76C254.38,-64.49 247.94,-54.23 242.07,-44.9"/>
<polygon fill="black" stroke="black" points="244.53,-43.24 236.25,-36.63 238.6,-46.96 244.53,-43.24"/>
</g>
<!-- 27 -->
<g id="node28" class="node">
<title>27</title>
<ellipse fill="#60a6f6" stroke="black" cx="313.79" cy="-18" rx="27" ry="18"/>
<text text-anchor="middle" x="313.79" y="-13.32" font-family="Times,serif" font-size="14.00">X0</text>
</g>
<!-- 25&#45;&gt;27 -->
<g id="edge4" class="edge">
<title>25-&gt;27</title>
<path fill="none" stroke="black" d="M280,-72.76C285.33,-64.28 291.97,-53.71 297.95,-44.2"/>
<polygon fill="black" stroke="black" points="301.28,-46.48 303.64,-36.15 295.36,-42.75 301.28,-46.48"/>
</g>
<!-- 29 -->
<g id="node30" class="node">
<title>29</title>
<ellipse fill="#60a6f6" stroke="black" cx="299.79" cy="-234" rx="27" ry="18"/>
<text text-anchor="middle" x="299.79" y="-229.32" font-family="Times,serif" font-size="14.00">X0</text>
</g>
<!-- 28&#45;&gt;29 -->
<g id="edge11" class="edge">
<title>28-&gt;29</title>
<path fill="none" stroke="black" d="M299.79,-287.7C299.79,-280.24 299.79,-271.32 299.79,-262.97"/>
<polygon fill="black" stroke="black" points="303.29,-263.1 299.79,-253.1 296.29,-263.1 303.29,-263.1"/>
</g>
<!-- 30 -->
<g id="node31" class="node">
<title>30</title>
<ellipse fill="#60a6f6" stroke="black" cx="387.79" cy="-234" rx="42.79" ry="18"/>
<text text-anchor="middle" x="387.79" y="-229.32" font-family="Times,serif" font-size="14.00">-0.220</text>
</g>
<!-- 28&#45;&gt;30 -->
<g id="edge10" class="edge">
<title>28-&gt;30</title>
<path fill="none" stroke="black" d="M317.18,-291.17C329.37,-281.47 345.94,-268.29 359.96,-257.14"/>
<polygon fill="black" stroke="black" points="361.65,-259.47 367.3,-250.51 357.29,-253.99 361.65,-259.47"/>
</g>
<!-- 33 -->
<g id="node34" class="node">
<title>33</title>
<ellipse fill="#136ed4" stroke="black" cx="358.79" cy="-594" rx="27" ry="18"/>
<text text-anchor="middle" x="358.79" y="-589.33" font-family="Times,serif" font-size="14.00">sin</text>
</g>
<!-- 32&#45;&gt;33 -->
<g id="edge24" class="edge">
<title>32-&gt;33</title>
<path fill="none" stroke="black" d="M358.79,-647.7C358.79,-640.24 358.79,-631.32 358.79,-622.97"/>
<polygon fill="black" stroke="black" points="362.29,-623.1 358.79,-613.1 355.29,-623.1 362.29,-623.1"/>
</g>
<!-- 34 -->
<g id="node35" class="node">
<title>34</title>
<ellipse fill="#136ed4" stroke="black" cx="358.79" cy="-522" rx="30.16" ry="18"/>
<text text-anchor="middle" x="358.79" y="-517.33" font-family="Times,serif" font-size="14.00">mul</text>
</g>
<!-- 33&#45;&gt;34 -->
<g id="edge23" class="edge">
<title>33-&gt;34</title>
<path fill="none" stroke="black" d="M358.79,-575.7C358.79,-568.24 358.79,-559.32 358.79,-550.97"/>
<polygon fill="black" stroke="black" points="362.29,-551.1 358.79,-541.1 355.29,-551.1 362.29,-551.1"/>
</g>
<!-- 35 -->
<g id="node36" class="node">
<title>35</title>
<ellipse fill="#60a6f6" stroke="black" cx="344.79" cy="-450" rx="42.79" ry="18"/>
<text text-anchor="middle" x="344.79" y="-445.32" font-family="Times,serif" font-size="14.00">-0.447</text>
</g>
<!-- 34&#45;&gt;35 -->
<g id="edge22" class="edge">
<title>34-&gt;35</title>
<path fill="none" stroke="black" d="M355.33,-503.7C353.82,-496.15 352.01,-487.12 350.33,-478.68"/>
<polygon fill="black" stroke="black" points="353.6,-478.22 348.21,-469.1 346.74,-479.6 353.6,-478.22"/>
</g>
<!-- 36 -->
<g id="node37" class="node">
<title>36</title>
<ellipse fill="#60a6f6" stroke="black" cx="432.79" cy="-450" rx="27" ry="18"/>
<text text-anchor="middle" x="432.79" y="-445.32" font-family="Times,serif" font-size="14.00">X0</text>
</g>
<!-- 34&#45;&gt;36 -->
<g id="edge21" class="edge">
<title>34-&gt;36</title>
<path fill="none" stroke="black" d="M374.48,-506.15C384.73,-496.47 398.27,-483.65 409.73,-472.81"/>
<polygon fill="black" stroke="black" points="411.77,-475.76 416.63,-466.35 406.96,-470.67 411.77,-475.76"/>
</g>
</g>
</svg>