<svg xmlns="http://www.w3.org/2000/svg" xmlns:xlink="http://www.w3.org/1999/xlink" width="477pt" height="404pt" viewBox="0.00 0.00 477.00 404.00">
<g id="graph0" class="graph" transform="scale(1 1) rotate(0) translate(4 400)">
<title>program</title>
<polygon fill="white" stroke="none" points="-4,4 -4,-400 473,-400 473,4 -4,4"/>
<!-- 0 -->
<g id="node1" class="node">
<title>0</title>
<ellipse fill="#136ed4" stroke="black" cx="248" cy="-378" rx="29.64" ry="18"/>
<text text-anchor="middle" x="248" y="-373.32" font-family="Times,serif" font-size="14.00">add</text>
</g>
<!-- 1 -->
<g id="node2" class="node">
<title>1</title>
<ellipse fill="#136ed4" stroke="black" cx="203" cy="-306" rx="32.27" ry="18"/>
<text text-anchor="middle" x="203" y="-301.32" font-family="Times,serif" font-size="14.00">max</text>
</g>
<!-- 0&#45;&gt;1 -->
<g id="edge20" class="edge">
<title>0-&gt;1</title>
<path fill="none" stroke="black" d="M237.56,-360.76C232.11,-352.28 225.32,-341.71 219.2,-332.2"/>
<polygon fill="black" stroke="black" points="221.73,-330.67 213.38,-324.15 215.84,-334.45 221.73,-330.67"/>
</g>
<!-- 10 -->
<g id="node11" class="node">
<title>10</title>
<ellipse fill="#136ed4" stroke="black" cx="294" cy="-306" rx="30.16" ry="18"/>
<text text-anchor="middle" x="294" y="-301.32" font-family="Times,serif" font-size="14.00">mul</text>
</g>
<!-- 0&#45;&gt;10 -->
<g id="edge19" class="edge">
<title>0-&gt;10</title>
<path fill="none" stroke="black" d="M258.67,-360.76C264.24,-352.28 271.19,-341.71 277.44,-332.2"/>
<polygon fill="black" stroke="black" points="280.82,-334.43 283.39,-324.15 274.97,-330.58 280.82,-334.43"/>
</g>
<!-- 2 -->
<g id="node3" class="node">
<title>2</title>
<ellipse fill="#136ed4" stroke="black" cx="112" cy="-234" rx="30.16" ry="18"/>
<text text-anchor="middle" x="112" y="-229.32" font-family="Times,serif" font-size="14.00">min</text>
</g>
<!-- 1&#45;&gt;2 -->
<g id="edge8" class="edge">
<title>1-&gt;2</title>
<path fill="none" stroke="black" d="M184.58,-290.83C171.42,-280.71 153.51,-266.93 138.77,-255.59"/>
<polygon fill="black" stroke="black" points="141.14,-252.23 131.08,-248.91 136.87,-257.78 141.14,-252.23"/>
</g>
<!-- 9 -->
<g id="node10" class="node">
<title>9</title>
<ellipse fill="#60a6f6" stroke="black" cx="203" cy="-234" rx="42.79" ry="18"/>
<text text-anchor="middle" x="203" y="-229.32" font-family="Times,serif" font-size="14.00">-1.937</text>
</g>
<!-- 1&#45;&gt;9 -->
<g id="edge7" class="edge">
<title>1-&gt;9</title>
<path fill="none" stroke="black" d="M203,-287.7C203,-280.24 203,-271.32 203,-262.97"/>
<polygon fill="black" stroke="black" points="206.5,-263.1 203,-253.1 199.5,-263.1 206.5,-263.1"/>
</g>
<!-- 3 -->
<g id="node4" class="node">
<title>3</title>
<ellipse fill="#136ed4" stroke="black" cx="92" cy="-162" rx="30.16" ry="18"/>
<text text-anchor="middle" x="92" y="-157.32" font-family="Times,serif" font-size="14.00">mul</text>
</g>
<!-- 2&#45;&gt;3 -->
<g id="edge6" class="edge">
<title>2-&gt;3</title>
<path fill="none" stroke="black" d="M107.16,-216.05C104.95,-208.32 102.27,-198.96 99.79,-190.27"/>
<polygon fill="black" stroke="black" points="102.91,-189.44 96.8,-180.79 96.18,-191.37 102.91,-189.44"/>
</g>
<!-- 8 -->
<g id="node9" class="node">
<title>8</title>
<ellipse fill="#60a6f6" stroke="black" cx="167" cy="-162" rx="27" ry="18"/>
<text text-anchor="middle" x="167" y="-157.32" font-family="Times,serif" font-size="14.00">X1</text>
</g>
<!-- 2&#45;&gt;8 -->
<g id="edge5" class="edge">
<title>2-&gt;8</title>
<path fill="none" stroke="black" d="M124.48,-217.12C131.54,-208.13 140.51,-196.72 148.38,-186.7"/>
<polygon fill="black" stroke="black" points="151.52,-189.37 154.95,-179.34 146.02,-185.04 151.52,-189.37"/>
</g>
<!-- 4 -->
<g id="node5" class="node">
<title>4</title>
<ellipse fill="#136ed4" stroke="black" cx="69" cy="-90" rx="32.27" ry="18"/>
<text text-anchor="middle" x="69" y="-85.33" font-family="Times,serif" font-size="14.00">max</text>
</g>
<!-- 3&#45;&gt;4 -->
<g id="edge4" class="edge">
<title>3-&gt;4</title>
<path fill="none" stroke="black" d="M86.43,-144.05C83.86,-136.23 80.75,-126.75 77.86,-117.98"/>
<polygon fill="black" stroke="black" points="80.96,-117.2 74.52,-108.79 74.31,-119.38 80.96,-117.2"/>
</g>
<!-- 7 -->
<g id="node8" class="node">
<title>7</title>
<ellipse fill="#60a6f6" stroke="black" cx="162" cy="-90" rx="42.79" ry="18"/>
<text text-anchor="middle" x="162" y="-85.33" font-family="Times,serif" font-size="14.00">-0.938</text>
</g>
<!-- 3&#45;&gt;7 -->
<g id="edge3" class="edge">
<title>3-&gt;7</title>
<path fill="none" stroke="black" d="M106.85,-146.15C116.06,-136.94 128.09,-124.91 138.57,-114.43"/>
<polygon fill="black" stroke="black" points="140.61,-117.34 145.2,-107.8 135.66,-112.39 140.61,-117.34"/>
</g>
<!-- 5 -->
<g id="node6" class="node">
<title>5</title>
<ellipse fill="#60a6f6" stroke="black" cx="27" cy="-18" rx="27" ry="18"/>
<text text-anchor="middle" x="27" y="-13.32" font-family="Times,serif" font-size="14.00">X0</text>
</g>
<!-- 4&#45;&gt;5 -->
<g id="edge2" class="edge">
<title>4-&gt;5</title>
<path fill="none" stroke="black" d="M59.05,-72.41C54.01,-64.01 47.78,-53.63 42.16,-44.26"/>
<polygon fill="black" stroke="black" points="44.74,-42.76 36.59,-35.99 38.74,-46.36 44.74,-42.76"/>
</g>
<!-- 6 -->
<g id="node7" class="node">
<title>6</title>
<ellipse fill="#60a6f6" stroke="black" cx="115" cy="-18" rx="42.79" ry="18"/>
<text text-anchor="middle" x="115" y="-13.32" font-family="Times,serif" font-size="14.00">-1.442</text>
</g>
<!-- 4&#45;&gt;6 -->
<g id="edge1" class="edge">
<title>4-&gt;6</title>
<path fill="none" stroke="black" d="M79.67,-72.76C85.16,-64.4 91.99,-54.02 98.17,-44.61"/>
<polygon fill="black" stroke="black" points="101.5,-46.91 104.07,-36.63 95.65,-43.07 101.5,-46.91"/>
</g>
<!-- 11 -->
<g id="node12" class="node">
<title>11</title>
<ellipse fill="#136ed4" stroke="black" cx="294" cy="-234" rx="30.16" ry="18"/>
<text text-anchor="middle" x="294" y="-229.32" font-family="Times,serif" font-size="14.00">min</text>
</g>
<!-- 10&#45;&gt;11 -->
<g id="edge18" class="edge">
<title>10-&gt;11</title>
<path fill="none" stroke="black" d="M294,-287.7C294,-280.24 294,-271.32 294,-262.97"/>
<polygon fill="black" stroke="black" points="297.5,-263.1 294,-253.1 290.5,-263.1 297.5,-263.1"/>
</g>
<!-- 20 -->
<g id="node21" class="node">
<title>20</title>
<ellipse fill="#60a6f6" stroke="black" cx="385" cy="-234" rx="42.79" ry="18"/>
<text text-anchor="middle" x="385" y="-229.32" font-family="Times,serif" font-size="14.00">-0.720</text>
</g>
<!-- 10&#45;&gt;20 -->
<g id="edge17" class="edge">
<title>10-&gt;20</title>
<path fill="none" stroke="black" d="M311.98,-291.17C324.68,-281.4 341.95,-268.11 356.51,-256.91"/>
<polygon fill="black" stroke="black" points="358.37,-259.13 364.16,-250.26 354.1,-253.58 358.37,-259.13"/>
</g>
<!-- 12 -->
<g id="node13" class="node">
<title>12</title>
<ellipse fill="#60a6f6" stroke="black" cx="251" cy="-162" rx="27" ry="18"/>
<text text-anchor="middle" x="251" y="-157.32" font-family="Times,serif" font-size="14.00">X0</text>
</g>
<!-- 11&#45;&gt;12 -->
<g id="edge16" class="edge">
<title>11-&gt;12</title>
<path fill="none" stroke="black" d="M284.03,-216.76C278.87,-208.37 272.46,-197.93 266.66,-188.5"/>
<polygon fill="black" stroke="black" points="269.14,-186.84 260.92,-180.15 263.17,-190.5 269.14,-186.84"/>
</g>
<!-- 13 -->
<g id="node14" class="node">
<title>13</title>
<ellipse fill="#136ed4" stroke="black" cx="326" cy="-162" rx="29.64" ry="18"/>
<text text-anchor="middle" x="326" y="-157.32" font-family="Times,serif" font-size="14.00">add</text>
</g>
<!-- 11&#45;&gt;13 -->
<g id="edge15" class="edge">
<title>11-&gt;13</title>
<path fill="none" stroke="black" d="M301.58,-216.41C305.29,-208.3 309.84,-198.35 314,-189.25"/>
<polygon fill="black" stroke="black" points="317.5,-191.02 318.47,-180.47 311.13,-188.11 317.5,-191.02"/>
</g>
<!-- 14 -->
<g id="node15" class="node">
<title>14</title>
<ellipse fill="#136ed4" stroke="black" cx="290" cy="-90" rx="32.27" ry="18"/>
<text text-anchor="middle" x="290" y="-85.33" font-family="Times,serif" font-size="14.00">max</text>
</g>
<!-- 13&#45;&gt;14 -->
<g id="edge14" class="edge">
<title>13-&gt;14</title>
<path fill="none" stroke="black" d="M317.47,-144.41C313.3,-136.3 308.18,-126.35 303.5,-117.25"/>
<polygon fill="black" stroke="black" points="306.16,-115.76 298.47,-108.47 299.93,-118.96 306.16,-115.76"/>
</g>
<!-- 17 -->
<g id="node18" class="node">
<title>17</title>
<ellipse fill="#136ed4" stroke="black" cx="373" cy="-90" rx="32.27" ry="18"/>
<text text-anchor="middle" x="373" y="-85.33" font-family="Times,serif" font-size="14.00">max</text>
</g>
<!-- 13&#45;&gt;17 -->
<g id="edge13" class="edge">
<title>13-&gt;17</title>
<path fill="none" stroke="black" d="M336.9,-144.76C342.6,-136.28 349.69,-125.71 356.08,-116.2"/>
<polygon fill="black" stroke="black" points="359.49,-118.4 362.16,-108.15 353.68,-114.5 359.49,-118.4"/>
</g>
<!-- 15 -->
<g id="node16" class="node">
<title>15</title>
<ellipse fill="#60a6f6" stroke="black" cx="221" cy="-18" rx="27" ry="18"/>
<text text-anchor="middle" x="221" y="-13.32" font-family="Times,serif" font-size="14.00">X5</text>
</g>
<!-- 14&#45;&gt;15 -->
<g id="edge10" class="edge">
<title>14-&gt;15</title>
<path fill="none" stroke="black" d="M275.03,-73.81C265.68,-64.33 253.48,-51.95 243.04,-41.35"/>
<polygon fill="black" stroke="black" points="245.98,-39.34 236.47,-34.68 241,-44.26 245.98,-39.34"/>
</g>
<!-- 16 -->
<g id="node17" class="node">
<title>16</title>
<ellipse fill="#60a6f6" stroke="black" cx="293" cy="-18" rx="27" ry="18"/>
<text text-anchor="middle" x="293" y="-13.32" font-family="Times,serif" font-size="14.00">X3</text>
</g>
<!-- 14&#45;&gt;16 -->
<g id="edge9" class="edge">
<title>14-&gt;16</title>
<path fill="none" stroke="black" d="M290.74,-71.7C291.06,-64.24 291.44,-55.32 291.8,-46.97"/>
<polygon fill="black" stroke="black" points="295.34,-47.25 292.27,-37.1 288.34,-46.95 295.34,-47.25"/>
</g>
<!-- 18 -->
<g id="node19" class="node">
<title>18</title>
<ellipse fill="#60a6f6" stroke="black" cx="370" cy="-18" rx="27" ry="18"/>
<text text-anchor="middle" x="370" y="-13.32" font-family="Times,serif" font-size="14.00">X6</text>
</g>
<!-- 17&#45;&gt;18 -->
<g id="edge12" class="edge">
<title>17-&gt;18</title>
<path fill="none" stroke="black" d="M372.26,-71.7C371.94,-64.24 371.56,-55.32 371.2,-46.97"/>
<polygon fill="black" stroke="black" points="374.66,-46.95 370.73,-37.1 367.66,-47.25 374.66,-46.95"/>
</g>
<!-- 19 -->
<g id="node20" class="node">
<title>19</title>
<ellipse fill="#60a6f6" stroke="black" cx="442" cy="-18" rx="27" ry="18"/>
<text text-anchor="middle" x="442" y="-13.32" font-family="Times,serif" font-size="14.00">X4</text>
</g>
<!-- 17&#45;&gt;19 -->
<g id="edge11" class="edge">
<title>17-&gt;19</title>
<path fill="none" stroke="black" d="M387.97,-73.81C397.32,-64.33 409.52,-51.95 419.96,-41.35"/>
<polygon fill="black" stroke="black" points="422,-44.26 426.53,-34.68 417.02,-39.34 422,-44.26"/>
</g>
</g>
</svg>